<svg width="551" height="796" viewBox="0 0 551 796" fill="none" xmlns="http://www.w3.org/2000/svg">
<rect x="19.3" y="180" width="512" height="512" fill="white"/>
<path d="M209.7 634.15C205.667 628.65 200.167 621.683 193.2 613.25C186.233 604.45 179.633 597.667 173.4 592.9C215.2 573.833 251.5 549.45 282.3 519.75C313.1 489.683 337.667 455.4 356 416.9C374.7 378.033 386.617 336.233 391.75 291.5C377.45 291.867 359.85 292.417 338.95 293.15C318.05 293.883 296.05 294.617 272.95 295.35C250.217 296.083 228.583 296.817 208.05 297.55C187.517 298.283 170.283 298.833 156.35 299.2C156.717 310.567 157.083 323.4 157.45 337.7C158.183 352 158.917 366.3 159.65 380.6C160.383 394.533 161.117 407 161.85 418C162.583 429 163.317 436.883 164.05 441.65L111.25 443.85C111.617 438.717 111.617 429.733 111.25 416.9C110.883 403.7 110.517 388.85 110.15 372.35C109.783 355.483 109.233 338.617 108.5 321.75C107.767 304.883 106.85 290.033 105.75 277.2C105.017 264.367 104.283 255.567 103.55 250.8C111.617 251.167 123.533 251.533 139.3 251.9C155.433 251.9 173.767 251.717 194.3 251.35C214.833 250.983 236.1 250.617 258.1 250.25C280.467 249.517 302.1 248.783 323 248.05C343.9 247.317 362.417 246.583 378.55 245.85C395.05 244.75 407.7 243.65 416.5 242.55L445.65 255.75C441.25 343.75 418.333 419.65 376.9 483.45C335.467 546.883 279.733 597.117 209.7 634.15Z" fill="#212121"/>
</svg>
